<?xml version="1.0" standalone="no"?>
<!DOCTYPE svg PUBLIC "-//W3C//DTD SVG 20010904//EN"
 "http://www.w3.org/TR/2001/REC-SVG-20010904/DTD/svg10.dtd">
<svg version="1.0" xmlns="http://www.w3.org/2000/svg"
 width="700.000000pt" height="700.000000pt" viewBox="0 0 700.000000 700.000000"
 preserveAspectRatio="xMidYMid meet">
<metadata>
Created by potrace 1.11, written by Peter Selinger 2001-2013
</metadata>
<g transform="translate(0.000000,700.000000) scale(0.100000,-0.100000)"
fill="#000000" stroke="none">
<path d="M765 5240 c-205 -41 -375 -192 -446 -395 l-24 -70 -2 -1245 c-3
-1382 -6 -1319 63 -1460 71 -143 229 -267 389 -305 51 -12 458 -14 2750 -14
1495 0 2708 4 2730 9 22 4 51 11 65 14 14 3 59 22 100 43 153 77 269 230 305
400 21 99 20 2475 0 2572 -23 105 -78 205 -159 286 -80 80 -155 124 -266 154
-74 21 -76 21 -2770 20 -1482 -1 -2713 -5 -2735 -9z m1566 -594 c0 -11 1 -209
1 -438 l1 -418 439 0 438 0 0 -290 0 -290 -438 0 -439 0 -1 -412 c0 -227 -1
-425 -1 -439 l-1 -25 -290 0 -290 -1 0 439 0 438 -437 2 -438 3 0 288 0 287
437 0 438 0 0 439 0 439 290 0 c290 0 290 0 291 -22z m3473 -287 c65 -17 147
-67 198 -120 160 -167 162 -423 5 -595 -168 -185 -456 -190 -629 -12 -122 125
-159 308 -96 466 85 208 305 318 522 261z m-1168 -875 c179 -47 309 -210 319
-399 14 -273 -222 -491 -492 -454 -207 28 -368 203 -377 408 -3 87 8 143 44
216 60 124 153 194 315 240 27 7 145 1 191 -11z"/>
</g>
</svg>
